<?xml version="1.0" standalone="no"?><!DOCTYPE svg PUBLIC "-//W3C//DTD SVG 1.1//EN" "http://www.w3.org/Graphics/SVG/1.1/DTD/svg11.dtd"><svg t="1690682426912" class="icon" viewBox="0 0 1024 1024" version="1.1" xmlns="http://www.w3.org/2000/svg" p-id="2893" xmlns:xlink="http://www.w3.org/1999/xlink" width="200" height="200"><path d="M990.711881 670.046658v282.647219a70.569917 70.569917 0 0 1-70.937468 71.30502h-282.647219a70.569917 70.569917 0 0 1-70.937469-70.569916v-283.382323a70.569917 70.569917 0 0 1 70.937469-70.937468h283.01477a70.569917 70.569917 0 0 1 70.569917 70.937468z m-566.397093 0v282.647219a70.569917 70.569917 0 0 1-70.937468 71.30502H71.097652A70.569917 70.569917 0 0 1 0.160184 953.061429v-283.014771a70.569917 70.569917 0 0 1 70.937468-70.937468h282.647219a70.569917 70.569917 0 0 1 70.569917 70.937468z m354.319791-257.286155l-167.603553-167.971104 167.603553-167.603552 167.603552 167.603552z m226.044265-213.179957L823.843432 18.745134a63.953987 63.953987 0 0 0-90.417706 0l-180.835412 180.835412a63.218884 63.218884 0 0 0 0 90.417706l180.835412 182.67317a62.851332 62.851332 0 0 0 90.417706 0l180.835412-183.775825a63.218884 63.218884 0 0 0 0-89.315051zM424.314788 105.119772v282.647219a70.569917 70.569917 0 0 1-70.937468 70.569917H71.097652A70.569917 70.569917 0 0 1 0.160184 387.766991V105.119772a70.937468 70.937468 0 0 1 70.937468-73.51033h282.647219a70.937468 70.937468 0 0 1 70.569917 73.51033z" fill="#1B1B1B" p-id="2894"></path></svg>